<?xml version="1.0" encoding="utf-8"?>
<!-- Generator: Adobe Illustrator 23.0.1, SVG Export Plug-In . SVG Version: 6.00 Build 0)  -->
<svg version="1.1" xmlns="http://www.w3.org/2000/svg" xmlns:xlink="http://www.w3.org/1999/xlink" x="0px" y="0px"
	 viewBox="0 0 850.39 850.39" style="enable-background:new 0 0 850.39 850.39;" xml:space="preserve">
<style type="text/css">
	.st0{display:none;}
	.st1{display:inline;fill:#F5F9E6;}
	.st2{opacity:0.16;fill:#040607;}
	.st3{fill:#FC9D46;}
	.st4{fill:#FFD487;}
	.st5{fill:#4C86C6;}
	.st6{fill:#935E40;}
	.st7{fill:#BA9865;}
	.st8{fill:#3C6287;}
	.st9{stroke:#000000;stroke-width:2;stroke-linecap:round;stroke-linejoin:round;stroke-miterlimit:10;}
	.st10{fill:none;}
	.st11{fill:#445280;}
	.st12{fill:#FFFFFF;}
	.st13{fill:#FFCEA6;}
	.st14{fill:#B5B5B5;}
	.st15{fill:#FFE9C6;}
</style>
<g id="Layer_1" class="st0">
</g>
<g id="Layer_7" class="st0">
	<rect class="st1" width="850.39" height="850.39"/>
</g>
<g id="Тень">
	<ellipse class="st2" cx="434.8" cy="805.66" rx="256.26" ry="42.13"/>
</g>
<g id="Цвет">
	<path class="st3" d="M272.75,792.93c0,0-87.68-159.86,29.85-180.83c4.6,5.89,8.44,55.09,8.44,55.09l24.32-51.85l5.11,2.27
		c0,0-6.22,67.25,26.27,109.69c4.95,14.44,21.96,60.48,21.96,60.48s-33.67,3.03-43.18,11.63
		C330.52,796.71,288.77,789.75,272.75,792.93z"/>
	<path class="st3" d="M220.76,813.45c0,0,33.25-35.22,124.76-14.05C339.12,805.21,292.12,825.72,220.76,813.45z"/>
	<path class="st3" d="M388.7,787.78l-20.13-61.01l3.94-75.35l2.5-2.36c0,0,5.02,3.97,5.26,10.25c0.24,6.27,15.21,30.03,15.21,30.03
		s21.68-13.81,33.27-73c6.21-0.71,6.72,0,6.72,0l10.69,48.1c0,0-20.4,102.06-17.41,128.19c-10.61,8.55-75.96,36.31-92.44,16.8
		C343.64,801.76,367.06,787.13,388.7,787.78z"/>
	<path class="st3" d="M448.98,664.31c0,0,24.08-42.47,26.21-55.67c6.61-3.91,10.14,1.04,10.14,1.04l8.98,60.56l15-20.59
		l-6.99,126.52c0,0,58.21-5.67,42.79,13.73c-19.04,3.24-93.87,2.72-93.87,2.72S431.96,742.56,448.98,664.31z"/>
	<path class="st3" d="M510.86,646.95l21.44-59.99c0,0,6.3-4.33,8.96,1.19c2.65,5.52,8.73,43.1,8.73,43.1s27.9-37.31,21.19-81.6
		c4.23-4.28,8.27-2.7,8.27-2.7l19.28,30.25l3.43-10.06c0,0,128.41,97.57-35.93,207.83c22,1.83,65.81,0.76,65.81,0.76
		s25.16,6.69,25.05,16.92c-9.84,0.05-111.96-0.2-111.96-0.2s17.2-19.24-42.79-16.28C503.46,763.33,510.86,646.95,510.86,646.95z"/>
	<path class="st3" d="M392.66,180.12c0,0-58.45-93.6-240.63-108.37c17.71,23.29,44.24,64.87,58.02,72.47
		c13.78,7.59,50.35,37.83,116.28,39.13c30.21,9.04,1.72-5.21,33.66,12.3c18.66-7.73,31.18-14.65,31.18-14.65L392.66,180.12z"/>
	<path class="st3" d="M470.68,179.03c0,0-45.43-21.25-50.48-69.66C400.24,76.84,383.65,26.65,224.83,7.33
		c18.22,17.47,100.92,115.71,205.63,174.03C470.19,181.36,470.68,179.03,470.68,179.03z"/>
	<path class="st3" d="M540.59,375c0,0,8.73-13-2.16-59.4c7.02-31.15,34.54-129-53.99-131.62c-88.53-2.61-95.81-1.63-95.81-1.63
		s-119.63,15.46-86.13,149.68c-12.92,33.42-24.54,72.05,51.34,95.18C441.68,445.91,532.97,446.43,540.59,375z"/>
	<path d="M340.55,423.36"/>
	<path class="st4" d="M340.55,423.36c0,0-56.23,17.47-66.41,68.09c12.16-4.71,25.13-7.75,25.13-7.75l5.01,5.33l-2.9,6.18
		c0,0-27.47,14.69-28.64,88.63c16.81-14.19,29.68-32.84,37.3-26.2c1.57,10.93-7.3,79.2,1.49,104.76c9-17.93,23.83-47.05,23.83-47.05
		l5.11,2.27c0,0-4,69.05,26.89,111.48c1.02-29.21,5.15-77.67,5.15-77.67l2.5-2.36c0,0,5.19,2.81,5.26,10.25
		c3.72,7.77,15.21,30.03,15.21,30.03s31.95-42.49,33.27-73c6.72,0,6.72,0,6.72,0l10.69,48.1c0,0,27.22-33.43,28.78-54.53
		c5.53-4.13,5.97-6.22,10.39-0.23c2.1,7.32,9.23,52.47,8.98,60.56c5.77-7.91,37.1-64.24,37.99-83.28c7.19-2.46,6.75-4.44,8.96,1.19
		c2.21,5.63,8.73,43.1,8.73,43.1s29.01-49.13,21.19-81.6c4.78-4.31,5.78-5.44,8.27-2.7s20.72,38.88,20.72,37.88
		s-3.89-67.56-23.99-97.61c4.1-6.83,10.4-4.21,10.4-4.21l19.12,10.45c0,0-8.6-63.17-81.33-81.23
		C517.45,418.47,474.5,459.51,340.55,423.36z"/>
	<path class="st5" d="M538.83,375.47l5.4-15.4l-5.78-44.48c0,0,13.13-58.67,9.58-69.28c-1.58-12.99-3.44-64.24-69.81-64.14
		c-23.26-0.18-85.76,0.04-85.76,0.04S388.96,386.59,538.83,375.47z"/>
</g>
<g id="Тени">
	<path class="st6" d="M520.97,774.22c0,0,3.08-132.75,8.85-117.36s0.38,28.67,23.47,4.04c23.09-24.63,28.86-71.62,30.78-49.37
		c1.92,22.25,31.55,70.35,32.51,24.94c0.96-45.4,10.58-38.67,10.58-38.67l-25.01-30.64l-5.13,7.38l-17.58-27.58
		c0,0-8.65-5.72-8.84,7.94s2.12,52.71-24.63,84.46c3.08-25.78-4.83-51.51-4.83-51.51s-4.98-11.01-10.94,1.68
		c-3.43,15.92-18.95,51.35-19.34,57.43s-8.48,128.57-8.48,128.57L520.97,774.22z"/>
	<path class="st6" d="M373.41,787.88c0,0-48.03-101.29-51.18-96c-8.08,15.39-25.78,23.86-26.55,4.62s4.42-77.92-9.43-78.3
		c-13.85-0.38,20.01-6.09,20.01-6.09l6.73,48.54l21.19-44.62c0,0,6.07-2.63,6.14,6.7c0.07,9.32-5.02,62.77,27.21,109.35
		c7.18,17.88,20.73,54.53,20.73,54.53L373.41,787.88z"/>
	<path class="st6" d="M375.71,744.4c0,0,0.31-56.76,7.66-39.82c7.35,16.93,43.9-24.63,49.29-40.02s5.32,29.44,5.32,29.44l8.18-29.55
		l-10.69-48.1c0,0-4.17-5.7-7.15,4.72c-2.98,10.41-27.59,76.98-32.84,68.28c-5.25-8.7-17.89-39.13-17.89-39.13s-4.67-1.9-5.43,3.62
		c-0.76,5.53-5.41,73.48-5.41,73.48L375.71,744.4z"/>
	<path class="st6" d="M446.87,686.01c0,0,36-49.06,30.22-33.76c-5.77,15.3-3.46,60.75,4.91,54.25c8.37-6.49,24.76-18.78,26.45-28.29
		s1.01-27.77,1.01-27.77l-15.48,22.15l-7.46-60.49c0,0-5.38-16.47-11.51-0.58c-6.14,15.9-17.58,45.5-25.93,55.66
		C446.21,682.95,446.87,686.01,446.87,686.01z"/>
	<path class="st7" d="M316.5,434.91c0,0,130.78,86.12,236.6-7.57c-12.66-8.81-29.47-15.09-29.47-15.09s-37.4,49.66-183.08,11.12
		C327.79,428.67,316.5,434.91,316.5,434.91z"/>
	<path class="st6" d="M303.47,332.49c0,0-18.11,51.16,52.12,94.63C335.56,421.15,265.86,401.37,303.47,332.49z"/>
	<path class="st6" d="M446.51,178.67c0,0-43.58-38.96-49.64-59.16s-68.06-89.54-153.94-94.84c19.04,22,100.5,108.4,182.77,154
		C452.29,182.09,446.51,178.67,446.51,178.67z"/>
	<path class="st6" d="M377.27,184.81c0,0-104.2-88.02-207.51-91.09c12.59,19.85,42.25,72.48,119.69,84.55
		c38.18,5.45,63.14,9.66,70.57,15.28C367.85,189.92,377.27,184.81,377.27,184.81z"/>
	<path class="st8" d="M467.51,182.16c0,0,59.69,27.13,79.76,85.65C550.02,243.61,554.1,177.35,467.51,182.16z"/>
</g>
<g id="Контур">
	<g>
		<path d="M469.48,179.4c-0.17,0.58-0.17,1.68,0.41,2.58c0.4,0.83,1.72,1.4,1.42,1.25l-0.16-0.09l-0.31-0.18l-0.59-0.35l-1.15-0.71
			c-0.76-0.47-1.51-0.94-2.25-1.43c-1.48-0.97-2.93-1.95-4.36-2.97c-2.86-2.02-5.6-4.18-8.29-6.38
			c-5.34-4.45-10.34-9.29-14.89-14.53c-4.54-5.24-8.62-10.9-12.03-16.96c-3.38-6.07-6.12-12.51-8.11-19.17
			c-0.48-1.67-0.91-3.35-1.35-5.04c-0.37-1.68-0.72-3.44-1.1-5.06l-0.58-2.38c-0.2-0.79-0.35-1.59-0.65-2.36l-0.81-2.32
			c-0.26-0.77-0.52-1.55-0.89-2.29c-2.56-6.06-6.09-11.74-10.22-16.97c-4.14-5.23-8.8-10.06-13.74-14.6
			c-4.93-4.55-10.28-8.66-15.72-12.61c-2.76-1.93-5.53-3.84-8.4-5.61c-2.81-1.85-5.75-3.51-8.65-5.24
			c-5.87-3.31-11.83-6.48-17.96-9.31c-6.08-2.92-12.34-5.47-18.61-7.95c-6.32-2.35-12.68-4.62-19.15-6.53l-4.85-1.45l-4.88-1.31
			c-3.25-0.91-6.55-1.6-9.83-2.39c-3.29-0.75-6.6-1.36-9.9-2.03c-3.32-0.54-6.63-1.18-9.97-1.63c-13.32-1.93-26.77-2.85-40.17-2.52
			l0,0l1.52-6.63c5.26,2.92,10.1,6.6,14.3,10.73c1.03,1.04,2.06,2.09,3.05,3.16c0.96,1.08,1.97,2.14,2.89,3.25
			c1.9,2.17,3.73,4.37,5.54,6.57c3.6,4.41,7.19,8.78,10.83,13.1c3.65,4.31,7.39,8.53,11.23,12.67c1.9,2.09,3.87,4.11,5.81,6.16
			l5.97,6l6.09,5.89c2.06,1.93,4.11,3.87,6.2,5.78c8.35,7.62,16.98,14.94,25.74,22.09c8.75,7.17,17.78,14,26.81,20.82
			c9.12,6.71,18.33,13.28,27.65,19.71c18.61,12.9,37.65,25.18,56.95,37.02l0,0l-1.89-0.56c3.25,0,6.44,0.03,9.59,0.15
			c3.15,0.12,6.26,0.33,9.43,0.63c3.17,0.3,6.41,0.67,9.75,1.03C462.57,178.78,466,179.12,469.48,179.4z M476.33,180.84
			c-3.6,0.28-7.24,0.61-10.97,0.97c-3.73,0.36-7.56,0.73-11.47,1.03c-3.9,0.3-7.87,0.51-11.79,0.63c-3.93,0.12-7.81,0.15-11.63,0.15
			l-1.04,0l-0.86-0.56l0,0c-18.82-12.75-37.51-25.67-55.96-38.95c-18.41-13.33-36.53-27.07-54.08-41.53
			c-17.57-14.43-34.51-29.7-50.28-46.15c-3.96-4.09-7.79-8.32-11.63-12.53l-11.31-12.74c-3.77-4.2-7.56-8.34-11.69-11.93
			c-4.12-3.58-8.57-6.58-13.45-8.75l-13.75-6.11l15.27-0.52l0,0c13.83,0.07,27.61,1.31,41.2,3.54c13.6,2.2,26.95,5.62,40.06,9.73
			c6.56,2.03,13.01,4.42,19.41,6.89c6.36,2.6,12.68,5.28,18.84,8.33c6.2,2.96,12.23,6.26,18.17,9.71
			c5.91,3.51,11.68,7.25,17.27,11.27c5.55,4.07,11.01,8.29,16.07,13c5.07,4.69,9.86,9.7,14.15,15.17
			c4.27,5.47,7.99,11.46,10.7,17.96c0.38,0.79,0.66,1.63,0.94,2.47l0.86,2.51c0.32,0.82,0.49,1.7,0.7,2.56l0.61,2.59
			c0.39,1.7,0.7,3.28,1.05,4.92c0.41,1.61,0.82,3.23,1.27,4.83c1.88,6.39,4.48,12.56,7.69,18.4c1.65,2.9,3.38,5.75,5.33,8.46
			c1.91,2.74,3.99,5.36,6.21,7.85c2.2,2.51,4.56,4.88,7.05,7.11c1.23,1.13,2.51,2.2,3.79,3.27c1.32,1.03,2.64,2.05,3.99,3.02
			c2.69,1.96,5.52,3.74,8.41,5.37c1.46,0.79,2.91,1.58,4.41,2.27c0.75,0.35,1.49,0.69,2.24,1l1.13,0.45l0.56,0.21l0.27,0.1
			l0.13,0.05c-0.25-0.13,1.11,0.46,1.56,1.32C476.4,179.11,476.45,180.24,476.33,180.84z"/>
	</g>
	<g>
		<path d="M389.56,179.16c-0.17,0.36-0.28,0.82-0.27,1.3c0.01,0.48,0.15,0.94,0.33,1.29c0.14,0.26,0.05,0.08,0.07,0.1l-0.02-0.06
			l-0.04-0.11l-0.18-0.46l-0.4-0.94c-0.28-0.62-0.6-1.24-0.9-1.86c-0.66-1.22-1.34-2.45-2.09-3.64c-0.74-1.2-1.54-2.36-2.33-3.53
			c-0.82-1.15-1.69-2.26-2.54-3.4c-3.49-4.46-7.48-8.55-11.65-12.4c-8.37-7.7-17.39-14.7-26.86-21.04
			c-18.9-12.77-39.54-22.8-60.72-31.23c-21.3-8.21-43.25-14.65-65.49-19.74c-5.57-1.24-11.17-2.34-16.76-3.48
			c-5.62-0.98-11.23-2-16.86-2.93l-16.93-2.49l-17-1.99l2.81-6.04l0.01,0.01c4.82,4.65,8.87,9.84,12.63,15.1
			c3.76,5.27,7.21,10.66,10.67,15.99c6.89,10.66,13.86,21.16,22.2,30.51c4.15,4.68,8.54,9.14,13.25,13.25
			c4.74,4.07,9.71,7.87,14.95,11.28c10.5,6.8,21.97,12.1,33.88,16.1c11.94,3.94,24.29,6.67,36.77,8.52l9.39,1.25
			c3.17,0.37,6.34,0.76,9.5,1.18c6.33,0.85,12.65,1.84,18.94,3.07c6.29,1.31,12.58,2.61,18.76,5.14c1.54,0.67,3.07,1.42,4.59,2.51
			c0.75,0.59,1.52,1.22,2.16,2.27c0.3,0.54,0.59,1.17,0.66,1.94c0.09,0.75-0.07,1.57-0.38,2.21c-0.64,1.32-1.61,2.02-2.56,2.57
			c-0.49,0.26-1,0.47-1.6,0.63c-0.31,0.07-0.63,0.14-1.12,0.14c-0.13,0-0.26-0.01-0.39-0.03c-0.16-0.02-0.41-0.09-0.61-0.16
			c-0.12-0.05-0.16-0.05-0.35-0.16c-0.17-0.1-0.33-0.23-0.48-0.37c-0.15-0.15-0.27-0.28-0.38-0.47c-0.11-0.19-0.2-0.41-0.25-0.64
			c-0.06-0.21-0.09-0.49-0.08-0.63c0.01-0.13,0.02-0.26,0.05-0.39c0.02-0.13,0.06-0.26,0.1-0.38c0.04-0.14,0.08-0.23,0.11-0.27
			c0.11-0.22,0.29-0.52,0.39-0.64l0.34-0.4c0.11-0.11,0.2-0.2,0.3-0.3c0.4-0.38,0.77-0.66,1.13-0.93c0.73-0.54,1.44-0.98,2.16-1.43
			c2.86-1.71,5.76-3.13,8.69-4.5c2.92-1.37,5.85-2.69,8.79-3.95c2.94-1.27,5.89-2.52,8.85-3.75l4.43-1.85l0.28-0.12l0.13-0.06
			c0.08-0.03,0.15-0.06,0.22-0.07c0.14-0.03,0.28-0.03,0.44,0.01C388.62,178.8,389.02,179,389.56,179.16z M396.09,181.67
			c-0.96,0.69-2.05,1.42-3.24,2.02c-0.59,0.3-1.2,0.57-1.81,0.81c-0.3,0.12-0.6,0.22-0.9,0.32l-0.72,0.23l-4.53,1.41
			c-3.01,0.97-6.01,1.97-8.98,3.03c-5.91,2.14-11.88,4.4-17.26,7.26c-0.65,0.37-1.31,0.73-1.86,1.13c-0.28,0.19-0.55,0.4-0.73,0.56
			l-0.13,0.11c-0.01,0.02-0.03,0.04-0.05,0.05c-0.03,0.03,0.07-0.09,0.07-0.14c-0.01,0,0.01-0.04,0.05-0.13
			c0.03-0.08,0.05-0.16,0.06-0.24c0.01-0.08,0.02-0.16,0.01-0.24c0-0.09,0-0.32-0.05-0.48c-0.04-0.18-0.12-0.35-0.21-0.49
			c-0.09-0.14-0.16-0.25-0.28-0.36c-0.11-0.11-0.23-0.2-0.36-0.27l-0.21-0.11c-0.1-0.05-0.26-0.08-0.32-0.08
			c-0.03-0.01-0.06-0.01-0.1-0.01c-0.1,0-0.02,0.01,0.06-0.01c0.17-0.04,0.41-0.12,0.62-0.23c0.43-0.21,0.78-0.55,0.83-0.68
			c0.04-0.07,0.04-0.06,0.04-0.1c0.02-0.03-0.03-0.14-0.1-0.3c-0.17-0.32-0.61-0.76-1.1-1.16c-1.04-0.81-2.37-1.48-3.74-2.09
			c-5.59-2.35-11.8-3.77-17.96-4.97c-6.19-1.18-12.45-2.13-18.72-2.94c-3.14-0.4-6.29-0.78-9.43-1.13l-9.52-1.22
			c-12.68-1.82-25.27-4.53-37.51-8.5l-4.55-1.61c-1.51-0.55-3.05-1.03-4.53-1.67c-2.97-1.23-5.99-2.37-8.89-3.8
			c-5.91-2.59-11.55-5.77-17.06-9.14c-5.48-3.44-10.68-7.3-15.66-11.44c-4.95-4.18-9.56-8.73-13.92-13.5
			c-8.72-9.55-16.13-20.14-23.31-30.65c-3.59-5.25-7.14-10.49-10.89-15.48c-3.75-4.99-7.77-9.7-12.24-13.75l-0.01-0.01l-7.42-7.65
			l10.23,1.61l17.06,2.69c5.68,0.97,11.34,2.02,17,3.03c5.65,1.11,11.28,2.32,16.92,3.48l16.81,3.95
			c22.34,5.55,44.36,12.46,65.69,21.14c10.66,4.35,21.14,9.14,31.37,14.43l7.62,4.07l7.49,4.31c2.48,1.46,4.92,3,7.37,4.5
			c2.45,1.51,4.82,3.15,7.24,4.72c9.56,6.44,18.68,13.55,27.15,21.4c4.22,3.94,8.34,7.98,12.41,12.14c2.02,2.09,4.04,4.19,6.02,6.37
			c1,1.08,1.99,2.18,2.98,3.3c0.49,0.57,1,1.12,1.48,1.71l0.75,0.88l0.38,0.47l0.1,0.12l0.05,0.06c0.04,0.06-0.03-0.08,0.14,0.22
			c0.23,0.42,0.41,0.97,0.46,1.52C396.29,180.69,396.22,181.24,396.09,181.67z"/>
	</g>
	<g>
		<path d="M542.32,297.78c-1.14,4.16-1.82,8.43-2.05,12.74c-0.25,4.31,0.02,8.65,0.56,12.97c1.08,8.66,3.49,17.22,4.65,26.22
			c0.28,2.25,0.45,4.53,0.51,6.82c0.03,2.29-0.08,4.6-0.36,6.89c-0.33,2.29-0.76,4.57-1.45,6.78c-0.32,1.11-0.73,2.19-1.13,3.28
			l-1.32,3.13c-1.72,3.96-3.06,8.16-4.5,12.38c-1.44,4.22-2.98,8.47-4.95,12.56c-1.96,4.1-4.36,8.03-7.29,11.57
			c-2.91,3.54-6.34,6.66-10.06,9.3c-0.95,0.63-1.85,1.35-2.84,1.9l-2.94,1.74c-1,0.53-2.03,1.03-3.04,1.54
			c-1,0.54-2.05,0.97-3.09,1.41c-4.14,1.86-8.47,3.16-12.8,4.4c-17.46,4.56-35.47,5.35-53.27,5.32l-6.68-0.15l-3.34-0.08l-3.34-0.16
			l-6.67-0.32l-6.67-0.46c-4.45-0.27-8.88-0.74-13.32-1.15c-2.22-0.19-4.43-0.52-6.64-0.77c-2.21-0.28-4.43-0.51-6.63-0.87l-6.62-1
			l-6.59-1.19c-2.2-0.37-4.38-0.87-6.56-1.34c-2.18-0.47-4.37-0.93-6.53-1.52c-8.68-2.15-17.26-4.83-25.52-8.41
			c-8.24-3.57-16.19-8.09-23.12-14.01c-0.9-0.7-1.71-1.51-2.52-2.31c-0.8-0.81-1.66-1.56-2.42-2.43l-2.25-2.6l-0.56-0.65l-0.5-0.7
			l-1.01-1.4l-1.01-1.4c-0.33-0.47-0.6-0.98-0.9-1.47c-0.57-1-1.2-1.97-1.72-3l-1.46-3.14c-0.49-1.04-0.8-2.16-1.21-3.24
			c-0.18-0.55-0.4-1.08-0.56-1.64l-0.42-1.68c-0.25-1.12-0.62-2.23-0.75-3.37l-0.52-3.42l-0.22-3.44c-0.12-1.15-0.01-2.29-0.01-3.44
			c0.02-1.15,0.03-2.3,0.18-3.43c0.12-1.14,0.22-2.28,0.36-3.41l0.59-3.37c0.9-4.47,2.14-8.86,3.79-13.07
			c1.55-4.26,3.55-8.32,5.59-12.34l0,0l-0.13,1.49c-2.17-6.7-3.78-13.53-4.92-20.44c-1.16-6.91-1.89-13.89-2.15-20.9
			c-0.51-14,0.8-28.21,4.94-41.8c2.07-6.78,4.88-13.38,8.5-19.54c3.61-6.16,8.06-11.87,13.21-16.87c5.15-4.99,10.96-9.31,17.21-12.8
			c6.28-3.45,12.92-6.13,19.71-8.28l-0.32,0.11l35.92-15.2l0,0l0.69-0.27l0.65,0.01l39.2,0.47l39.2,0.37l-0.33,0.02
			c1.9-0.2,3.62-0.27,5.42-0.31c1.78-0.04,3.55-0.02,5.32,0.05c3.54,0.12,7.07,0.46,10.57,1.01c3.51,0.49,6.97,1.32,10.4,2.23
			c3.4,1.04,6.78,2.18,10.02,3.7c6.49,2.96,12.55,7.02,17.6,12.13c5.07,5.09,9.05,11.21,11.84,17.75
			c2.77,6.55,4.62,13.48,5.37,20.48l0.36,2.62c0.07,0.88,0.11,1.75,0.16,2.63l0.29,5.26c0.02,1.75-0.04,3.5-0.06,5.25l-0.05,2.62
			l-0.03,1.31l-0.11,1.3C548.77,270.72,545.96,284.41,542.32,297.78z M538.87,296.84c3.49-13.23,6.13-26.71,6.89-40.28l0.1-1.27
			l0.02-1.27l0.02-2.54c0-1.69,0.06-3.39,0.02-5.08l-0.33-5.06c-0.06-0.84-0.1-1.69-0.17-2.53l-0.36-2.5
			c-0.76-6.7-2.58-13.22-5.21-19.31c-2.65-6.09-6.37-11.69-11.07-16.33c-4.7-4.64-10.33-8.29-16.4-10.95
			c-3.02-1.37-6.2-2.39-9.4-3.32c-3.24-0.8-6.5-1.54-9.82-1.95c-3.31-0.47-6.66-0.74-10.01-0.8c-1.67-0.05-3.35-0.04-5.01,0.03
			c-1.65,0.05-3.38,0.16-4.9,0.34l-0.16,0.02l-0.17,0l-39.2,0.37l-39.2,0.47l1.34-0.27l0,0l-36.15,14.64l-0.16,0.07l-0.16,0.05
			c-6.43,1.93-12.69,4.35-18.59,7.47c-5.87,3.16-11.31,7.08-16.15,11.63c-4.84,4.56-9.05,9.79-12.52,15.49
			c-3.47,5.71-6.22,11.88-8.29,18.29c-4.14,12.84-5.64,26.53-5.35,40.14c0.15,6.81,0.76,13.62,1.78,20.37
			c1.01,6.75,2.48,13.43,4.47,19.93l0.24,0.77l-0.37,0.72l0,0c-2,3.88-3.95,7.8-5.46,11.87c-1.61,4.04-2.81,8.22-3.69,12.45
			c-1.7,8.44-1.67,17.28,1.08,25.38c0.37,1,0.65,2.03,1.1,3l1.33,2.91c0.48,0.95,1.06,1.85,1.58,2.79c0.28,0.46,0.51,0.94,0.82,1.37
			l0.93,1.31l0.93,1.31l0.46,0.66l0.52,0.61l2.09,2.45c0.7,0.81,1.52,1.53,2.27,2.3c0.76,0.76,1.52,1.53,2.37,2.2
			c6.54,5.66,14.18,10.08,22.19,13.6c8.03,3.52,16.46,6.14,25,8.28c2.12,0.58,4.28,1.03,6.44,1.5c2.15,0.47,4.3,0.96,6.48,1.33
			l6.51,1.18l6.55,0.99c2.18,0.36,4.38,0.59,6.57,0.87c2.2,0.25,4.38,0.58,6.58,0.77c4.4,0.41,8.8,0.89,13.22,1.16l6.62,0.46
			l6.63,0.32l3.31,0.16l3.31,0.08l6.63,0.16c8.84,0.04,17.67-0.17,26.46-0.9c8.78-0.77,17.51-2.09,25.97-4.34
			c4.2-1.21,8.39-2.49,12.35-4.28c1-0.42,2-0.84,2.96-1.36c0.96-0.49,1.94-0.97,2.89-1.48l2.78-1.66c0.94-0.53,1.78-1.21,2.68-1.81
			c3.5-2.5,6.69-5.42,9.41-8.74c2.73-3.32,4.97-7.02,6.83-10.93c1.87-3.91,3.36-8.03,4.77-12.21c1.42-4.18,2.76-8.46,4.57-12.65
			l1.26-3.01c0.36-1,0.74-2,1.03-3.02c0.63-2.03,1.01-4.13,1.31-6.23c0.25-2.12,0.34-4.25,0.31-6.4c-0.06-2.15-0.23-4.3-0.5-6.46
			c-1.12-8.62-3.57-17.23-4.72-26.2c-0.57-4.48-0.87-9.04-0.62-13.6C536.96,305.79,537.67,301.24,538.87,296.84z"/>
	</g>
	<g>
		<path d="M397.99,181.5c-0.22,2.74-0.35,5.65-0.45,8.49c-0.07,2.86-0.1,5.72-0.09,8.59c0.04,5.73,0.27,11.47,0.63,17.2
			c0.39,5.73,0.93,11.45,1.64,17.16c0.74,5.7,1.62,11.38,2.68,17.04c1.03,5.66,2.35,11.26,3.78,16.83
			c1.47,5.56,3.06,11.09,4.97,16.52c1.88,5.43,3.98,10.79,6.34,16.03c2.34,5.25,4.95,10.38,7.84,15.34
			c5.78,9.91,12.66,19.21,20.8,27.26c8.17,7.99,17.47,14.85,27.76,19.76c10.22,5.03,21.28,8.16,32.51,9.7
			c5.63,0.7,11.29,1.18,16.96,1.1c2.83,0.05,5.67-0.1,8.5-0.25c1.41-0.05,2.83-0.21,4.24-0.34l4.23-0.41l0.52,6.98
			c-11.79,0.31-23.63-0.25-35.2-2.46c-5.79-1.06-11.49-2.6-17.06-4.46l-4.15-1.5c-1.37-0.53-2.71-1.13-4.07-1.68
			c-1.37-0.53-2.69-1.19-4.01-1.81c-1.33-0.63-2.66-1.24-3.94-1.97c-5.22-2.69-10.15-5.9-14.82-9.42
			c-4.68-3.51-9.09-7.38-13.17-11.55c-8.09-8.42-15.11-17.82-20.87-27.92c-5.73-10.12-10.61-20.71-14.46-31.67
			c-3.92-10.93-7.06-22.14-9.57-33.48c-1.27-5.67-2.37-11.38-3.32-17.11c-0.99-5.73-1.83-11.48-2.51-17.26
			c-0.71-5.77-1.31-11.57-1.75-17.38c-0.24-2.91-0.44-5.82-0.59-8.74c-0.16-2.94-0.31-5.81-0.35-8.85L397.99,181.5z"/>
	</g>
	<g>
		<path d="M524.5,408.9c1.41,0.39,2.64,0.77,3.92,1.2c1.27,0.42,2.53,0.86,3.77,1.32c2.5,0.91,4.96,1.91,7.39,2.96
			c4.86,2.11,9.62,4.46,14.23,7.07c4.62,2.6,9.1,5.46,13.41,8.56c4.32,3.09,8.45,6.46,12.34,10.11c7.81,7.25,14.69,15.6,20.07,24.88
			l1.03,1.73l0.93,1.78c0.61,1.19,1.25,2.37,1.84,3.58c1.07,2.46,2.28,4.86,3.16,7.39c2.02,4.98,3.38,10.18,4.62,15.38l3.02,12.66
			l-8.95-9.59c-3.6-3.85-8.41-6.82-13.54-9.14c-2.57-1.16-5.24-2.17-7.96-3.05l-0.51-0.17c-0.08-0.02-0.19-0.07-0.23-0.07
			l-0.13-0.02c-0.17-0.03-0.35-0.11-0.51-0.09c-0.16-0.02-0.32-0.03-0.47,0c-0.16-0.01-0.3,0.05-0.45,0.09
			c-0.59,0.15-1.14,0.6-1.5,1.17c-0.37,0.57-0.49,1.23-0.37,1.82c0.02,0.08,0.03,0.15,0.03,0.23l0.09,0.22
			c0.03,0.16,0.13,0.31,0.22,0.46c0.06,0.1,0.04,0.1,0.17,0.3l0.32,0.48l0.63,0.97c1.7,2.57,3.24,5.22,4.7,7.92
			c2.91,5.39,5.36,11,7.46,16.72c4.21,11.45,6.82,23.37,8.39,35.37c1.57,12.01,1.96,24.11,1.54,36.15l0,0l-0.57,32.49l-6.21-31.63
			c-2.32-11.84-7.6-23.14-13.99-33.59c-0.81-1.3-1.64-2.6-2.49-3.88l-1.29-1.91c-0.1-0.14-0.23-0.35-0.31-0.45l-0.25-0.3
			c-0.16-0.2-0.37-0.33-0.55-0.48c-0.4-0.27-0.86-0.4-1.34-0.45c-0.49-0.04-0.99,0.07-1.45,0.25c-0.93,0.4-1.6,1.21-1.74,2.14
			c-0.01,0.12-0.03,0.24-0.05,0.36c0,0.12,0.02,0.25,0.02,0.38c-0.01,0.19,0.07,0.68,0.11,1.04l0.3,2.35
			c0.2,1.57,0.3,3.14,0.45,4.71l0.25,4.73l0.07,4.74c-0.08,12.64-2.21,25.29-6.2,37.35c-2.03,6.01-4.41,11.93-7.32,17.57
			c-1.37,2.87-2.99,5.6-4.57,8.35c-1.59,2.75-3.42,5.34-5.15,8l0,0l-9.49,14.34l2.99-16.92c0.53-3,0.88-6.06,1.02-9.16
			c0.1-3.1,0.07-6.23-0.15-9.37c-0.44-6.27-1.49-12.56-2.95-18.77c-0.74-3.1-1.57-6.19-2.5-9.25c-0.23-0.75-0.49-1.63-0.65-2
			c-0.14-0.2-0.23-0.46-0.42-0.62c-0.15-0.2-0.32-0.4-0.53-0.53c-0.87-0.49-2.07-0.58-2.98-0.11c-0.45,0.22-0.85,0.52-1.11,0.93
			c-0.09,0.09-0.13,0.2-0.19,0.31c-0.05,0.12-0.14,0.2-0.16,0.34c-0.04,0.13-0.07,0.25-0.12,0.37c-0.04,0.11-0.1,0.37-0.14,0.55
			c-0.4,1.58-0.77,3.17-1.2,4.74c-0.82,3.15-1.69,6.3-2.62,9.42c-3.68,12.52-8.2,24.81-13.67,36.73
			c-2.78,5.94-5.82,11.78-9.14,17.48c-3.39,5.66-7.08,11.16-11.14,16.43l-0.01,0.01l-7.06,9.47l0.91-11.65
			c0.44-5.71,0.32-11.56,0.01-17.39c-0.32-5.84-0.91-11.68-1.6-17.51c-0.74-5.82-1.55-11.64-2.53-17.44c-0.48-2.9-1-5.79-1.53-8.68
			c-0.03-0.2-0.07-0.34-0.11-0.46l-0.11-0.39c-0.06-0.27-0.23-0.47-0.32-0.72c-0.13-0.22-0.3-0.41-0.45-0.62
			c-0.2-0.15-0.35-0.37-0.58-0.5c-0.83-0.57-1.95-0.87-2.99-0.67c-1.04,0.19-1.97,0.74-2.53,1.58c-0.11,0.24-0.26,0.44-0.35,0.69
			c-0.08,0.28-0.17,0.46-0.26,0.81l-0.55,2.16c-0.72,2.89-1.52,5.76-2.4,8.6c-1.78,5.68-3.8,11.3-6.15,16.8
			c-4.67,11-10.65,21.49-17.8,31.28l-0.01,0.01l-5.05,7.13l-1.03-8.7c-1.39-11.8-3.6-23.52-6.09-35.17
			c-0.62-2.91-1.29-5.81-1.95-8.72l-1.01-4.35l-0.26-1.09l-0.13-0.54l-0.1-0.29c-0.14-0.34-0.3-0.6-0.56-0.77
			c-0.49-0.36-1.37-0.42-1.94-0.08c-0.28,0.17-0.47,0.38-0.62,0.67c-0.03,0.08-0.08,0.14-0.1,0.23c-0.02,0.09-0.04,0.18-0.06,0.27
			c-0.01,0.03-0.03,0.11-0.05,0.21l-0.05,0.28l-0.1,0.56c-0.49,2.98-1.06,5.94-1.69,8.89c-1.25,5.91-2.79,11.76-4.65,17.52
			c-1.82,5.78-4.06,11.43-6.63,16.95l-0.96,2.07c-0.33,0.69-0.69,1.36-1.04,2.04c-0.72,1.35-1.36,2.73-2.14,4.05l-2.29,3.98
			l-2.47,3.88c-3.41,5.11-7.28,9.93-11.54,14.44l-0.01,0.01l-4.1,4.52l-1.53-5.72c-1.42-5.32-3.36-10.47-5.52-15.57
			c-2.16-5.1-4.67-10.13-6.63-15.51c-0.98-2.68-1.77-5.45-2.33-8.26c-0.17-0.85-0.23-1.05-0.42-1.31c-0.18-0.23-0.46-0.39-0.8-0.45
			c-0.34-0.05-0.7,0.04-0.95,0.21c-0.25,0.17-0.41,0.39-0.49,0.75l-0.04,0.13l-0.04,0.26l-0.07,0.51l-0.14,1.03l-0.28,2.06
			l-0.56,4.12c-0.31,2.75-0.63,5.51-0.9,8.26l-0.67,8.29c-0.15,2.77-0.39,5.53-0.48,8.3c-0.09,2.77-0.22,5.54-0.26,8.31l-0.08,4.15
			l0,4.16c-0.01,2.77,0.08,5.54,0.12,8.31c0.08,2.77,0.2,5.53,0.35,8.3c0.29,5.51,0.73,11.08,1.41,16.45l0,0.01l2.14,16.48
			l-8.5-14.32c-2.08-3.5-3.84-6.91-5.63-10.41c-1.76-3.49-3.43-7.02-4.99-10.59c-3.12-7.15-5.99-14.39-8.41-21.8
			c-2.47-7.39-4.55-14.91-6.13-22.55c-1.61-7.63-2.74-15.37-3.27-23.16c-0.55-7.79-0.49-15.65,0.36-23.44l0.36-2.92
			c0.11-0.9,0.28-2.18,0.25-2.46c-0.03-0.47-0.21-0.83-0.53-1.14c-0.32-0.31-0.8-0.52-1.26-0.55c-0.46-0.03-0.86,0.09-1.17,0.34
			c-0.15,0.14-0.31,0.29-0.43,0.52c-0.06,0.06-0.18,0.3-0.28,0.51l-0.33,0.64c-0.86,1.7-1.72,3.4-2.53,5.13
			c-3.32,6.88-6.33,13.92-9.1,21.06c-2.78,7.12-5.34,14.39-7.53,21.65l-0.01,0.02l-4.55,15.34l-2.12-15.83
			c-0.93-6.98-1.64-13.8-2.22-20.71c-0.53-6.89-1.05-13.78-1.22-20.69c-0.51-13.8-0.17-27.67,1.66-41.42
			c0.36-3.45,1.12-6.85,1.76-10.27l0.25-1.28c0.1-0.42,0.22-0.84,0.33-1.27l0.68-2.53l0.66-2.53l0.33-1.27l0.08-0.32l0.05-0.24
			l0.1-0.47c0.24-1.27-0.16-2.51-0.91-3.52c-0.79-0.98-1.99-1.68-3.22-1.83c-1.24-0.11-2.45,0.24-3.46,1.08
			c-1.31,1.07-2.6,2.16-3.87,3.28c-2.55,2.23-4.96,4.6-7.29,7.04c-2.34,2.43-4.55,4.98-6.61,7.63c-4.11,5.27-7.75,10.97-9.93,17
			l-0.01,0.02l-9.74,24.62l3.12-26.27c0.72-6.04,1.2-12.18,1.74-18.34c0.54-6.16,1.15-12.34,1.98-18.51
			c1.7-12.3,4.39-24.63,9.44-36.11c1.3-2.85,2.68-5.66,4.29-8.35c0.75-1.38,1.64-2.67,2.47-4c0.9-1.28,1.77-2.59,2.74-3.83
			l1.45-1.85c0.49-0.62,1.02-1.19,1.53-1.79c1-1.21,2.12-2.31,3.21-3.44c0.53-0.58,1.13-1.09,1.7-1.63l0.86-0.8
			c0.26-0.25,0.63-0.56,0.8-0.77c0.91-0.86,1.43-2.01,1.49-3.21c0.08-1.2-0.37-2.44-1.15-3.36c-0.77-0.93-1.86-1.51-3-1.61
			c-0.29,0.01-0.58-0.01-0.87,0.02l-0.89,0.18l-2.19,0.62c-1.45,0.45-2.9,0.89-4.33,1.41c-2.86,1.01-5.67,2.16-8.41,3.47
			c-2.71,1.3-5.46,2.74-7.84,4.36l-0.02,0.01l-7.7,5.71l2.8-9.66c0.35-1.21,0.69-2.21,1.07-3.28c0.37-1.05,0.77-2.09,1.18-3.12
			c0.82-2.06,1.7-4.08,2.64-6.07c1.88-3.98,3.98-7.84,6.3-11.57c4.64-7.45,10.16-14.36,16.45-20.46c3.17-3.03,6.53-5.85,10.05-8.45
			c3.57-2.54,7.26-4.89,11.13-6.93c7.73-4.08,16.02-6.98,24.5-8.81l0.63,2.71c-8.16,2.11-16.03,5.24-23.27,9.44
			c-3.62,2.1-7.06,4.49-10.36,7.05c-3.25,2.62-6.34,5.43-9.24,8.43c-5.74,6.05-10.71,12.8-14.82,20.05
			c-2.05,3.62-3.89,7.36-5.51,11.18c-0.82,1.91-1.56,3.84-2.25,5.79c-0.35,0.97-0.67,1.95-0.97,2.92c-0.3,0.96-0.6,2-0.81,2.85
			l-4.9-3.96l0.03-0.01c3.17-1.06,6.12-1.95,9.17-2.83c3.03-0.86,6.06-1.65,9.1-2.38c1.52-0.36,3.05-0.71,4.58-1.03l2.29-0.47
			c0.43-0.07,0.93-0.12,1.39-0.17c0.47-0.01,0.96,0.04,1.43,0.06c1.93,0.26,3.67,1.37,4.81,2.84c1.17,1.47,1.75,3.35,1.62,5.22
			c-0.1,1.88-1,3.69-2.32,4.94c-0.34,0.36-0.57,0.55-0.86,0.83l-0.82,0.78c-0.54,0.53-1.12,1.02-1.62,1.58
			c-1.04,1.1-2.1,2.17-3.06,3.34c-0.48,0.58-1,1.13-1.46,1.73l-1.38,1.79c-3.65,4.81-6.58,10.15-8.92,15.73
			c-4.67,11.19-6.89,23.28-7.94,35.4c-1.09,12.17-0.86,24.38-1.04,36.85l-6.62-1.64l0.01-0.02c3.46-6.51,7.85-12.1,12.53-17.33
			c4.72-5.2,9.82-9.96,15.17-14.4c1.34-1.11,2.7-2.19,4.08-3.25c1.66-1.33,4-1.99,6.16-1.68c2.17,0.3,4.14,1.47,5.47,3.17
			c1.31,1.71,1.96,4.04,1.54,6.17l-0.18,0.78l-0.09,0.38l-0.08,0.31l-0.33,1.22l-0.66,2.44l-0.64,2.45
			c-0.1,0.41-0.22,0.81-0.31,1.23l-0.23,1.25c-0.59,3.33-1.31,6.64-1.64,10.02c-1.69,13.47-1.68,27.16-0.68,40.74l0.4,5.09
			l0.53,5.08c0.34,3.39,0.8,6.77,1.27,10.14c0.95,6.73,2.16,13.49,3.66,20.02l-6.67-0.49l0.01-0.02
			c5.99-14.4,12.12-28.55,19.13-42.41c0.86-1.74,1.78-3.45,2.69-5.16l0.34-0.65c0.11-0.21,0.2-0.41,0.42-0.75
			c0.36-0.61,0.86-1.18,1.44-1.65c1.19-0.96,2.78-1.39,4.22-1.26c1.46,0.12,2.83,0.73,3.9,1.76c1.07,1.01,1.76,2.52,1.82,3.97
			c0.03,0.71-0.07,1.51-0.12,1.87l-0.18,1.41l-0.35,2.81c-0.79,7.52-0.82,15.12-0.25,22.68c1.2,15.12,4.73,30.05,9.89,44.35
			c2.59,7.15,5.55,14.17,8.9,20.99c1.67,3.41,3.43,6.78,5.27,10.09c1.83,3.29,3.82,6.61,5.84,9.63l-6.36,2.16l0-0.02
			c-0.11-5.73-0.03-11.29,0.06-16.91c0.11-5.61,0.28-11.2,0.57-16.79c0.26-5.59,0.61-11.17,1.06-16.75l0.71-8.36l0.88-8.34
			l1.03-8.32l0.6-4.15l0.3-2.08l0.15-1.04l0.07-0.52l0.04-0.26l0.09-0.38c0.22-1,0.89-2.02,1.82-2.6c0.92-0.59,2.01-0.8,3.05-0.65
			c1.03,0.15,2.06,0.71,2.73,1.58c0.7,0.84,0.89,2.07,1,2.57c0.54,2.65,1.32,5.23,2.33,7.75c2.02,5.04,4.79,9.84,7.5,14.74
			c2.76,4.88,5.43,9.87,8.13,14.9l-5.63-1.21l0.01-0.01c8.45-7.76,15.38-17.3,20.6-27.75c2.63-5.21,4.92-10.63,6.84-16.18
			c1.9-5.56,3.49-11.23,4.8-16.98c0.66-2.87,1.21-5.77,1.71-8.67l0.1-0.54l0.05-0.27c0.01-0.08,0.03-0.18,0.07-0.33
			c0.12-0.55,0.27-1.09,0.55-1.61c0.52-1.04,1.39-1.96,2.41-2.52c2.05-1.11,4.59-0.99,6.54,0.39c0.97,0.69,1.68,1.72,2.06,2.77
			c0.09,0.25,0.18,0.55,0.24,0.78l0.13,0.55l0.26,1.09l1.04,4.36l2.07,8.72c2.79,11.62,5.62,23.23,8.59,34.89l-6.08-1.57l0.01-0.01
			c7.81-8.42,14.25-18.18,19.31-28.63c2.52-5.23,4.74-10.62,6.59-16.15c0.93-2.76,1.79-5.54,2.57-8.35l0.56-2.11
			c0.09-0.36,0.28-0.86,0.43-1.28c0.17-0.44,0.44-0.85,0.67-1.26c1.09-1.62,2.9-2.67,4.75-2.96c1.86-0.31,3.82,0.16,5.39,1.28
			c0.41,0.26,0.72,0.64,1.08,0.96c0.3,0.37,0.6,0.76,0.83,1.17c0.19,0.43,0.45,0.85,0.57,1.3l0.18,0.67
			c0.06,0.23,0.11,0.45,0.14,0.61l1.58,8.71c1.04,5.81,2.1,11.62,3.05,17.46c1.96,11.68,3.8,23.33,4.81,35.43l-6.15-2.18l0.01-0.01
			c4.01-4.87,7.72-10.01,11.17-15.35c3.38-5.39,6.51-10.95,9.42-16.65c5.72-11.44,10.57-23.37,14.6-35.58
			c1.02-3.05,1.98-6.12,2.89-9.2c0.47-1.54,0.89-3.09,1.34-4.64c0.06-0.21,0.09-0.35,0.18-0.62l0.28-0.78
			c0.08-0.26,0.25-0.5,0.38-0.75c0.14-0.25,0.28-0.49,0.47-0.7c0.67-0.92,1.63-1.62,2.64-2.05c2.05-0.9,4.45-0.68,6.34,0.49
			c0.43,0.35,0.94,0.61,1.31,1.03c0.42,0.38,0.71,0.86,1.02,1.32c0.56,1.08,0.76,1.76,1.07,2.53c1.16,3.07,2.24,6.17,3.21,9.31
			c1.93,6.29,3.48,12.74,4.4,19.35c0.47,3.3,0.73,6.65,0.85,10.03c0.08,3.38-0.07,6.78-0.44,10.2l-6.5-2.59l0,0
			c6.8-10.03,12.88-20.57,17.25-31.88c4.38-11.28,7.22-23.24,7.79-35.41l0.12-4.56c-0.02-1.52-0.05-3.04-0.1-4.57
			c-0.11-1.52-0.17-3.04-0.32-4.56l-0.23-2.27c-0.04-0.4-0.09-0.68-0.11-1.27c-0.01-0.26-0.03-0.52-0.02-0.78l0.1-0.8
			c0.35-2.15,1.95-3.99,3.88-4.77c0.97-0.39,2.02-0.59,3.09-0.5c1.06,0.1,2.12,0.44,3.01,1.05c0.42,0.31,0.86,0.65,1.19,1.05
			l0.49,0.6c0.16,0.2,0.24,0.33,0.36,0.5l1.33,1.94l2.59,3.92c6.82,10.52,12.84,21.56,17.63,33.52l-6.78,0.86l0,0
			c0.41-11.71,0.03-23.45-1.49-35.02c-1.51-11.56-4.02-22.99-8.02-33.87c-1.99-5.43-4.32-10.74-7.05-15.81
			c-1.37-2.53-2.81-5.02-4.4-7.41l-0.59-0.9c-0.2-0.31-0.36-0.54-0.69-1.1c-0.29-0.49-0.56-0.98-0.75-1.54
			c-0.1-0.27-0.2-0.54-0.29-0.82l-0.18-0.86c-0.24-1.16-0.18-2.36,0.02-3.51c0.26-1.13,0.66-2.24,1.29-3.2
			c1.21-1.94,3.11-3.5,5.39-4.15c0.57-0.17,1.14-0.3,1.73-0.34c0.59-0.08,1.17-0.07,1.75-0.01c0.59,0.02,1.13,0.16,1.68,0.29
			l0.41,0.1c0.14,0.04,0.2,0.06,0.3,0.09l0.55,0.18c2.93,0.95,5.83,2.04,8.68,3.33c5.66,2.57,11.23,5.89,15.78,10.75l-5.93,3.07
			c-1.17-4.86-2.42-9.71-4.31-14.34c-0.82-2.36-1.95-4.59-2.94-6.88c-0.55-1.12-1.15-2.22-1.72-3.33l-0.87-1.66l-0.96-1.61
			c-5.02-8.64-11.44-16.46-18.81-23.3c-3.67-3.44-7.58-6.63-11.68-9.56c-4.09-2.95-8.36-5.66-12.76-8.15
			c-4.4-2.48-8.94-4.73-13.58-6.74c-2.32-1-4.66-1.95-7.03-2.82c-1.18-0.44-2.37-0.86-3.56-1.25c-1.17-0.39-2.42-0.78-3.5-1.08
			L524.5,408.9z"/>
	</g>
	<g>
		<path d="M512.6,645.18l-8.86,131.09l-1.55-1.49l0.01,0c5.03-0.66,10.04-1.14,15.1-1.45c5.06-0.29,10.14-0.43,15.3-0.13
			c2.58,0.16,5.18,0.43,7.84,1c1.33,0.29,2.68,0.66,4.06,1.23c1.37,0.59,2.83,1.34,4.17,2.79c0.66,0.73,1.23,1.69,1.56,2.76
			c0.33,1.08,0.34,2.19,0.21,3.19c-0.33,1.97-1.13,3.44-1.96,4.72c-0.84,1.28-1.76,2.37-2.71,3.38c-0.95,1.02-1.93,1.94-2.92,2.84
			l0,0l-2.2-6.19c19.31,0.22,38.64,0.39,57.95,0.47c9.66,0.03,19.31,0.06,28.96,0.02c9.63-0.06,19.34-0.08,28.8-0.49l-3.3,3.32v0
			c0.11-1.58-0.12-3.02-0.82-4.32c-0.66-1.32-1.83-2.52-3.26-3.56c-2.91-2.09-6.74-3.47-10.65-4.48c-7.9-1.98-16.34-2.67-24.74-3
			c-8.42-0.3-16.9-0.16-25.38,0.18c-8.48,0.35-16.96,0.91-25.45,1.55l0,0l-5.06,0.48l4.25-2.82c18.42-12.2,35.99-25.84,51.05-41.88
			c3.7-4.06,7.35-8.17,10.65-12.54c1.72-2.14,3.26-4.4,4.85-6.62c0.8-1.11,1.5-2.28,2.26-3.42c0.75-1.14,1.5-2.28,2.17-3.47
			c2.87-4.64,5.3-9.53,7.47-14.51c0.51-1.26,1.09-2.49,1.54-3.77l1.39-3.82l1.2-3.88c0.4-1.29,0.69-2.62,1.04-3.92
			c2.58-10.5,3.26-21.43,1.9-32.11c-1.33-10.7-4.64-21.1-9.33-30.84c-4.71-9.74-10.77-18.84-17.71-27.19
			c-3.46-4.18-7.16-8.18-11.03-11.99c-1.94-1.9-3.92-3.75-5.96-5.54c-2.01-1.77-4.15-3.56-6.18-5.08l4.18-5.62
			c2.38,1.85,4.46,3.67,6.58,5.59c2.1,1.91,4.14,3.88,6.13,5.89c3.97,4.03,7.75,8.26,11.28,12.68c7.08,8.83,13.26,18.43,18.03,28.75
			c4.76,10.31,8.08,21.38,9.3,32.74c1.25,11.35,0.33,22.92-2.57,33.9c-0.39,1.37-0.72,2.75-1.16,4.1l-1.33,4.04l-1.52,3.97
			c-0.5,1.33-1.12,2.6-1.67,3.9c-2.34,5.15-4.95,10.17-7.99,14.92c-0.72,1.21-1.51,2.38-2.3,3.54c-0.8,1.16-1.55,2.35-2.39,3.48
			c-1.67,2.26-3.3,4.55-5.1,6.71c-3.46,4.42-7.26,8.56-11.09,12.63c-15.61,16.08-33.58,29.53-52.32,41.5l-0.81-2.33l0,0
			c8.46-1.01,16.94-1.95,25.46-2.67c8.52-0.72,17.07-1.24,25.68-1.31c4.3-0.03,8.62,0.05,12.95,0.35c4.33,0.3,8.69,0.78,13.05,1.69
			c4.35,0.94,8.78,2.21,12.96,4.9c2.06,1.36,4.08,3.16,5.48,5.58c0.7,1.2,1.24,2.52,1.56,3.88c0.31,1.36,0.42,2.74,0.4,4.08l0,0.01
			l-0.06,3.18l-3.24,0.14c-9.85,0.43-19.47,0.44-29.16,0.5c-9.68,0.04-19.35,0.01-29.02-0.02c-19.34-0.09-38.67-0.25-58-0.47
			l-9.79-0.11l7.59-6.08l0,0c1.83-1.43,3.6-2.97,4.8-4.54c0.6-0.77,1.01-1.55,1.15-2.06c0.08-0.49,0.12-0.58-0.17-1.05
			c-0.32-0.45-1.07-1.01-1.97-1.45c-0.91-0.45-1.96-0.83-3.06-1.16c-2.21-0.63-4.58-1.06-6.98-1.38c-4.82-0.62-9.78-0.84-14.74-0.9
			c-4.96-0.04-9.96,0.08-14.9,0.39l-0.01,0l-1.64,0.18l0.09-1.67l7.24-131.19L512.6,645.18z"/>
	</g>
	<g>
		<path d="M540.81,795.91c-7.49,0.45-14.93,0.78-22.4,1.06c-7.46,0.27-14.93,0.49-22.41,0.58c-7.48,0.09-14.96,0.13-22.45-0.04
			c-7.5-0.17-15-0.45-22.54-1.09l-2.64-0.22l-0.48-2.55c-0.98-5.23-2.03-10.44-2.94-15.67l-1.24-7.88l-0.62-3.94
			c-0.2-1.31-0.34-2.64-0.51-3.96l-0.99-7.92c-0.35-2.64-0.52-5.3-0.79-7.94c-0.56-5.29-0.84-10.61-1.17-15.93
			c-0.49-10.64-0.6-21.31-0.1-31.98c0.16-2.67,0.25-5.33,0.49-8l0.32-4l0.42-4c0.26-2.66,0.65-5.33,1.03-7.99
			c0.22-1.33,0.4-2.66,0.66-4c0.24-1.35,0.49-2.64,0.82-4.09l6.79,1.72c-2.64,10.29-5.04,20.74-7.27,31.18
			c-2.21,10.45-4.23,20.94-5.94,31.46c-1.71,10.52-3.14,21.08-3.94,31.63c-0.4,5.27-0.66,10.55-0.57,15.76
			c0.09,5.2,0.45,10.41,1.54,15.22l0.62,2.76l-2.53,1.21c-7.54,3.61-15.19,7.44-23.03,10.84c-7.84,3.41-15.89,6.5-24.25,8.84
			c-8.35,2.32-17.07,3.94-26.08,3.61c-4.49-0.18-9.05-0.89-13.43-2.39c-4.38-1.49-8.56-3.82-12.1-6.89l0,0l-3.16-2.61l2.97-2.51
			l2.96-2.51l1.48-1.24l1.58-1.11c1.06-0.73,2.09-1.49,3.16-2.19l3.31-1.93c4.46-2.45,9.1-4.53,13.89-6.02
			c4.78-1.54,9.64-2.7,14.56-3.47c4.93-0.75,9.83-1.19,14.87-1.13l0,0l-1.13,1.62l-21.87-52.54l6.57-2.43l17.56,54.13l0.52,1.61
			l-1.65,0.01h0c-4.72,0.31-9.54,1.12-14.19,2.21c-4.67,1.11-9.23,2.58-13.61,4.39c-4.41,1.76-8.57,4.05-12.47,6.6l-2.87,1.99
			c-0.92,0.72-1.8,1.47-2.69,2.2l-1.34,1.1l-1.23,1.22l-2.45,2.42l-0.19-5.12l0,0c2.85,2.47,6.19,4.34,9.8,5.57
			c3.61,1.24,7.49,1.86,11.43,2.01c7.91,0.3,16.03-1.15,23.92-3.35c7.92-2.22,15.69-5.19,23.33-8.52
			c7.66-3.32,15.13-7.06,22.83-10.75l-1.91,3.97c-1.28-5.66-1.62-11.22-1.72-16.73c-0.09-5.51,0.18-10.96,0.59-16.39
			c0.82-10.85,2.29-21.57,4.01-32.22c1.73-10.66,3.78-21.24,6-31.78c2.25-10.55,4.65-21.01,7.34-31.5l6.79,1.72
			c-0.26,1.12-0.51,2.43-0.73,3.67c-0.25,1.25-0.42,2.54-0.63,3.81c-0.37,2.56-0.74,5.12-0.99,7.7l-0.41,3.87l-0.32,3.89
			c-0.24,2.59-0.33,5.2-0.48,7.79c-0.49,10.41-0.38,20.86,0.1,31.29c0.33,5.21,0.6,10.43,1.15,15.63c0.27,2.6,0.43,5.21,0.78,7.8
			l0.97,7.78c0.17,1.3,0.3,2.6,0.5,3.89l0.61,3.88l1.22,7.75c0.9,5.15,1.94,10.29,2.9,15.43l-3.12-2.78
			c7.3,0.62,14.68,0.9,22.07,1.06c7.39,0.16,14.8,0.12,22.22,0.03c7.41-0.09,14.83-0.31,22.25-0.57c7.41-0.28,14.85-0.61,22.22-1.05
			L540.81,795.91z"/>
	</g>
	<g>
		<path d="M307.32,615.02c-0.93,0.06-2.11,0.2-3.18,0.36c-1.09,0.15-2.19,0.34-3.28,0.55c-2.19,0.42-4.37,0.92-6.52,1.52
			c-4.31,1.19-8.54,2.71-12.58,4.59c-4.06,1.86-7.92,4.11-11.54,6.67c-3.59,2.6-6.97,5.51-9.94,8.8
			c-5.97,6.55-10.46,14.41-13.21,22.92c-2.81,8.5-3.92,17.57-4.02,26.64c-0.01,4.55,0.25,9.1,0.69,13.65
			c0.52,4.54,1.14,9.08,2.04,13.58c1.73,9.02,4.14,17.93,7,26.69c5.76,17.55,13.3,34.52,21.61,51.09l0,0l-1.87-0.99
			c6.41-0.89,12.75-0.86,19.07-0.73c6.32,0.15,12.61,0.55,18.88,1.1c6.27,0.53,12.53,1.18,18.76,1.95
			c6.25,0.76,12.45,1.59,18.71,2.56l-1.25,6.89c-6.05-1.21-12.21-2.31-18.34-3.33c-6.14-1.03-12.29-1.94-18.46-2.74
			c-6.16-0.81-12.34-1.47-18.52-1.9c-6.16-0.4-12.38-0.69-18.41-0.12l-1.34,0.13l-0.53-1.12l0,0
			c-8.61-16.57-16.49-33.59-22.61-51.34c-3.05-8.87-5.64-17.93-7.56-27.17c-1-4.61-1.71-9.29-2.32-13.98
			c-0.53-4.71-0.87-9.45-0.93-14.21c-0.03-9.51,0.98-19.16,3.88-28.4c2.84-9.24,7.64-17.98,14.11-25.29
			c3.22-3.67,6.88-6.93,10.78-9.83c3.93-2.87,8.11-5.38,12.48-7.47c4.36-2.11,8.9-3.81,13.54-5.17c2.32-0.68,4.67-1.26,7.04-1.75
			c1.19-0.25,2.38-0.46,3.59-0.65c1.23-0.19,2.37-0.35,3.75-0.47L307.32,615.02z"/>
	</g>
	<g>
		<path d="M273,794.54c-4.97,0.98-9.95,2.13-14.87,3.4c-4.92,1.28-9.8,2.69-14.56,4.32c-4.74,1.65-9.44,3.5-13.57,5.89
			c-2.02,1.19-3.95,2.59-5.06,4.01c-0.52,0.7-0.8,1.34-0.77,1.72c-0.03,0.38,0.13,0.76,0.52,1.38l0,0l-1.92-1.47l1.38,0.33
			c0.5,0.09,1.04,0.16,1.56,0.24c1.05,0.16,2.19,0.23,3.3,0.33c2.27,0.13,4.58,0.19,6.91,0.19c4.66-0.01,9.37-0.19,14.08-0.46
			c9.43-0.54,18.87-1.37,28.31-2.32c9.44-0.95,18.88-2.03,28.31-3.19c9.42-1.16,18.86-2.4,28.25-3.73l1,6.93
			c-9.47,1.35-18.92,2.58-28.39,3.75c-9.47,1.17-18.96,2.25-28.46,3.21c-9.51,0.95-19.03,1.79-28.62,2.34
			c-4.79,0.28-9.61,0.46-14.47,0.47c-2.43,0.01-4.88-0.06-7.37-0.2c-1.26-0.11-2.5-0.18-3.8-0.38c-0.66-0.1-1.3-0.18-1.97-0.31
			l-2.09-0.51l-1.24-0.3l-0.68-1.17l0-0.01c-0.93-1.55-1.67-3.73-1.32-5.92c0.29-2.19,1.4-3.85,2.48-5.11
			c2.25-2.47,4.73-3.87,7.17-5.15c4.92-2.45,9.92-4.04,14.95-5.46c5.03-1.39,10.08-2.52,15.15-3.52c5.08-0.99,10.15-1.84,15.29-2.53
			L273,794.54z"/>
	</g>
	<path d="M356.13,306.13c0,0,8.62,24.74,31.83,14.13c23.21-10.61,17.57-21.88-1.33-26.86C367.74,288.43,352.48,294.32,356.13,306.13
		z"/>
	<path d="M456.9,302.72c0,0-4.61,22.55,24.9,16.91c29.51-5.64,15.92-21.55,6.63-24.54S458.52,295.43,456.9,302.72z"/>
	<path class="st9" d="M425.2,371.52c0,0,13.5-9.48,15.1-17.12c-3.32-5.97-23.85-9.28-33.12,0
		C412.17,362.04,420.2,368.66,425.2,371.52z"/>
	<g>
		<path d="M465.71,380.56c-0.61,2.17-1.98,3.89-3.47,5.26c-1.51,1.37-3.2,2.44-4.94,3.33c-3.5,1.78-7.25,2.88-11.07,3.51
			c-3.82,0.6-7.75,0.72-11.64,0c-1.94-0.36-3.87-0.95-5.68-1.89c-1.81-0.93-3.5-2.25-4.74-3.96l2.22-0.1
			c-1.1,1.85-2.75,3.36-4.59,4.36c-1.84,1.01-3.83,1.6-5.82,1.92c-3.99,0.62-7.98,0.27-11.81-0.58c-3.83-0.87-7.54-2.28-10.95-4.28
			c-1.7-1.01-3.34-2.17-4.81-3.56c-1.47-1.39-2.79-3.01-3.7-4.93c-0.32-0.67-0.04-1.48,0.64-1.8c0.67-0.32,1.48-0.04,1.8,0.64
			l0.01,0.01c1.47,3.05,4.34,5.48,7.44,7.32c3.13,1.84,6.61,3.17,10.18,3.98c3.56,0.8,7.27,1.11,10.8,0.56
			c1.76-0.28,3.46-0.79,4.95-1.61c1.49-0.81,2.74-1.97,3.59-3.38l1.04-1.73l1.19,1.62c1.95,2.67,5.31,4.16,8.77,4.79
			c3.49,0.64,7.16,0.54,10.73-0.02c3.57-0.58,7.09-1.63,10.27-3.25c1.58-0.81,3.08-1.78,4.35-2.93c1.26-1.15,2.27-2.51,2.68-3.98
			l0-0.01c0.2-0.72,0.94-1.14,1.66-0.95C465.49,379.09,465.91,379.83,465.71,380.56L465.71,380.56z"/>
	</g>
	<g>
		<path d="M478.62,518.29c-0.22,4.81,0.3,9.62,1.13,14.32c0.85,4.71,2.08,9.32,3.63,13.81c0.39,1.12,0.84,2.22,1.25,3.33l0.63,1.66
			l0.72,1.63l1.44,3.24l1.6,3.16l0.8,1.58c0.28,0.52,0.59,1.02,0.88,1.54l1.77,3.06c1.21,2.01,2.56,3.95,3.82,5.92l-6.25,0.57l0,0
			c2.57-5.95,5.04-11.96,7.34-18.03c2.27-6.08,4.37-12.22,6.2-18.44c1.82-6.22,3.39-12.53,4.37-18.94
			c0.94-6.39,1.49-12.97-0.06-19.36l0,0l0,0c2.86,5.23,6.22,10.16,9.51,15.12c3.31,4.96,6.59,9.94,9.61,15.12
			c3.02,5.17,5.79,10.55,7.96,16.29c2.2,5.72,3.66,11.86,4.08,18.34l-6.2-2.42l0,0c1.96-2.26,3.5-5.28,4.56-8.54
			c1.07-3.27,1.78-6.75,2.23-10.28c0.89-7.09,0.87-14.4,0.18-21.65c-0.7-7.25-2-14.48-4.09-21.51c-2.12-6.99-4.91-13.9-9.29-19.88
			l0,0c4.85,5.62,8.24,12.39,10.95,19.31c2.68,6.96,4.59,14.22,5.9,21.61c1.29,7.39,1.93,14.93,1.58,22.57
			c-0.19,3.82-0.64,7.67-1.58,11.51c-0.93,3.83-2.42,7.72-5.03,11.28l0,0l-8.52,9.15l2.32-11.57c1.09-5.43,0.69-11.24-0.51-16.92
			c-1.23-5.69-3.34-11.24-5.87-16.6c-2.52-5.37-5.5-10.53-8.59-15.62l-4.68-7.61c-1.58-2.53-3.09-5.09-4.51-7.71l0,0l0,0
			c1.1,3.09,1.56,6.38,1.84,9.66c0.06,1.64,0.19,3.3,0.13,4.94l-0.03,2.48l-0.15,2.47c-0.42,6.59-1.43,13.12-2.71,19.59
			c-1.29,6.47-2.86,12.88-4.61,19.23c-1.78,6.35-3.73,12.65-5.79,18.91l0,0l-3.09,7l-3.16-6.43c-1.1-2.24-2.27-4.43-3.3-6.7
			l-1.48-3.42c-0.24-0.57-0.5-1.13-0.73-1.71l-0.64-1.75l-1.28-3.49l-1.1-3.55l-0.55-1.77l-0.46-1.8c-0.3-1.2-0.62-2.39-0.89-3.59
			c-1.06-4.81-1.76-9.69-2.07-14.57c-0.28-4.88-0.24-9.78,0.54-14.59L478.62,518.29z"/>
	</g>
	<g>
		<path d="M415.43,565.96c0.79,4.81,0.82,9.71,0.53,14.6c-0.31,4.88-1.02,9.76-2.07,14.57c-0.27,1.2-0.59,2.39-0.89,3.59l-0.46,1.8
			l-0.55,1.77l-1.1,3.54l-1.28,3.48l-0.65,1.75c-0.23,0.58-0.49,1.14-0.73,1.71l-1.48,3.42c-1.03,2.26-2.2,4.45-3.3,6.7l-3.17,6.43
			l-3.09-7l0,0c-2.07-6.26-4.02-12.56-5.8-18.91c-1.75-6.36-3.32-12.77-4.61-19.23c-1.28-6.47-2.3-13-2.71-19.59l-0.15-2.47
			l-0.03-2.48c-0.06-1.65,0.07-3.3,0.13-4.94c0.26-3.29,0.78-6.56,1.81-9.67l0.07,0.03l0,0c-2.6,5.38-5.69,10.51-8.63,15.69
			c-2.95,5.17-5.82,10.37-8.3,15.71c-2.48,5.33-4.59,10.8-5.95,16.37c-1.36,5.56-1.93,11.23-1.33,16.68l1.27,11.64l-7.48-9.22l0,0
			c-2.61-3.56-4.09-7.45-5.02-11.28c-0.93-3.85-1.38-7.69-1.58-11.51c-0.35-7.64,0.29-15.18,1.58-22.57
			c1.31-7.38,3.22-14.64,5.9-21.61c2.71-6.93,6.1-13.69,10.95-19.31c-4.38,5.98-7.18,12.88-9.29,19.88
			c-2.09,7.02-3.39,14.26-4.09,21.51c-0.69,7.25-0.71,14.56,0.18,21.65c0.46,3.54,1.16,7.02,2.23,10.28
			c1.06,3.26,2.6,6.28,4.56,8.54l0,0l-6.2,2.42c-0.08-6.47,1.22-12.75,3.26-18.58c2.05-5.85,4.81-11.32,7.87-16.52
			c3.07-5.21,6.46-10.15,9.91-15.03c3.43-4.88,6.98-9.66,10.08-14.75l0,0l0.08-0.01l-0.01,0.04c-1.62,6.36-1.02,12.96-0.09,19.35
			c0.98,6.41,2.55,12.72,4.37,18.94c1.83,6.22,3.93,12.36,6.2,18.44c2.3,6.07,4.76,12.07,7.34,18.03l0,0l-6.25-0.57
			c1.26-1.97,2.61-3.9,3.82-5.92l1.76-3.06c0.29-0.51,0.6-1.02,0.88-1.54l0.8-1.58l1.6-3.16l1.43-3.24l0.72-1.63l0.63-1.66
			c0.41-1.11,0.86-2.21,1.25-3.33c1.54-4.49,2.77-9.1,3.62-13.81c0.82-4.7,1.35-9.51,1.12-14.31L415.43,565.96z"/>
	</g>
	<g>
		<path d="M545.98,741.13c2.7-2.15,5.4-4.31,8.06-6.51c2.67-2.18,5.33-4.38,7.96-6.62c5.26-4.47,10.47-8.99,15.5-13.71
			c5.07-4.68,9.96-9.54,14.53-14.69c2.3-2.56,4.46-5.25,6.43-8.07c1.98-2.81,3.76-5.79,4.86-9.07c-0.88,3.35-2.6,6.43-4.45,9.35
			c-1.9,2.9-4.02,5.65-6.26,8.3c-4.48,5.29-9.4,10.17-14.43,14.92c-5.1,4.68-10.31,9.22-15.69,13.57
			C557.11,732.93,551.63,737.15,545.98,741.13z"/>
	</g>
	<g>
		<path d="M332.81,777.49c-4.1-4.16-7.95-8.55-11.67-13.06c-3.72-4.5-7.22-9.19-10.56-13.98c-3.27-4.85-6.37-9.82-8.99-15.06
			c-2.55-5.25-4.82-10.76-5.53-16.58c0.55,2.87,1.44,5.65,2.54,8.34c1.07,2.7,2.32,5.33,3.68,7.89c1.39,2.55,2.82,5.08,4.34,7.56
			c1.53,2.47,3.14,4.9,4.78,7.29c3.26,4.82,6.76,9.47,10.34,14.07c1.78,2.3,3.61,4.57,5.46,6.82
			C329.03,773.05,330.92,775.27,332.81,777.49z"/>
	</g>
	<g>
		<path d="M504.09,777.63c-1.5,0.35-2.99,0.7-4.48,1.02c-1.49,0.34-2.97,0.65-4.44,1.02c-1.47,0.36-2.94,0.73-4.39,1.17
			c-1.44,0.45-2.88,0.91-4.29,1.55c1.21-0.97,2.6-1.7,4.03-2.28c1.43-0.6,2.92-1.03,4.42-1.4C497.93,778,501,777.58,504.09,777.63z"
			/>
	</g>
	<g>
		<path d="M388.27,788.74c2.26-0.18,4.51,0.12,6.7,0.71c1.09,0.33,2.16,0.73,3.16,1.33c0.97,0.57,1.95,1.44,2.22,2.57
			c-0.65-0.93-1.6-1.45-2.58-1.88c-0.99-0.42-2.02-0.76-3.07-1.06C392.59,789.82,390.44,789.35,388.27,788.74z"/>
	</g>
	<g>
		<path class="st10" d="M333.97,325.66"/>
	</g>
	<g>
		<path class="st10" d="M303.47,336.05"/>
	</g>
	<g>
		<path d="M375.81,381.69c-0.37-1.37-0.47-2.81-0.3-4.25c0.17-1.43,0.66-2.88,1.6-4.07c0.46-0.6,1.08-1.07,1.71-1.48l1.03-0.46
			c0.34-0.14,0.72-0.17,1.08-0.25l0.54-0.1c0.18-0.01,0.36-0.01,0.55-0.01l1.08,0.02c0.71,0.11,1.41,0.25,2.09,0.42
			c-0.71,0.06-1.41,0.01-2.09,0.07l-1.01,0.14l-0.5,0.07l-0.48,0.15c-1.3,0.31-2.43,1.04-3.22,2.05c-0.81,1-1.3,2.27-1.61,3.58
			C375.99,378.9,375.82,380.28,375.81,381.69z"/>
	</g>
</g>
<g id="Блики">
	<path class="st11" d="M361.67,307.27c-5.11-1.68-0.54-13.64,15.6-10.95c16.14,2.69,25.16,7.89,15.55,15.39
		c-9.61,7.5-6.62-6.06-14.17-7.94S365.13,308.41,361.67,307.27z"/>
	<path class="st3" d="M463.97,310.02c-4.14-2.59,1.3-12.88,13.42-13.17c12.12-0.29,16.88,4.47,16.31,8.8
		c-0.58,4.33-12.41-1.69-16.88-1.27C472.34,304.8,467.44,312.18,463.97,310.02z"/>
	
		<ellipse transform="matrix(0.4163 -0.9092 0.9092 0.4163 -60.4311 516.3161)" class="st12" cx="371.93" cy="305.23" rx="4.46" ry="2.74"/>
	
		<ellipse transform="matrix(0.9326 -0.361 0.361 0.9326 -82.8277 156.4393)" class="st12" cx="377.36" cy="299.94" rx="2.12" ry="1.26"/>
	
		<ellipse transform="matrix(0.4163 -0.9092 0.9092 0.4163 -4.1015 606.8647)" class="st12" cx="470.62" cy="306.63" rx="4.46" ry="2.74"/>
	
		<ellipse transform="matrix(0.9326 -0.361 0.361 0.9326 -76.6796 192.1579)" class="st12" cx="476.05" cy="301.34" rx="2.12" ry="1.26"/>
	<path class="st13" d="M258.93,18.8c0,0,93.43,11.28,129,58.87C380.72,76.8,290.39,19.95,258.93,18.8z"/>
	<path class="st13" d="M178.71,82.58c0,0,116.88,19.91,143.14,46.75C306.26,129.33,211.32,88.35,178.71,82.58z"/>
	<path class="st13" d="M382.16,204.94c0,0-66.37,4.33-70.7,65.22C358.21,243.61,377.54,216.48,382.16,204.94z"/>
	<path class="st13" d="M283.75,629.59c0,0-41.84,25.4-35.21,66.37c3.32-0.14,5.77-2.74,5.77-3.32c0-0.58-2.74-42.57,29-56.71
		C283.46,632.04,283.75,629.59,283.75,629.59z"/>
	
		<ellipse transform="matrix(0.9691 -0.2466 0.2466 0.9691 -190.6325 87.9361)" class="st13" cx="255.72" cy="804.96" rx="15.12" ry="3.41"/>
	
		<ellipse transform="matrix(0.9305 -0.3664 0.3664 0.9305 -267.9695 190.0851)" class="st13" cx="366.74" cy="800.93" rx="12.41" ry="2.78"/>
	
		<ellipse transform="matrix(0.0525 -0.9986 0.9986 0.0525 -284.5615 1263.0106)" class="st13" cx="523.31" cy="781.47" rx="1.33" ry="10.93"/>
	
		<ellipse transform="matrix(0.9858 -0.1676 0.1676 0.9858 -53.0091 75.4151)" class="st14" cx="420.2" cy="351.69" rx="8.89" ry="2.74"/>
	<path class="st15" d="M379.39,516.37c-22.56,19.49-21.76,60.45-21.76,60.45S386.75,510.02,379.39,516.37z"/>
	<path class="st15" d="M506.54,469.86c0,0,24.43,16.55,27.32,47.52c-4.81-7.31-23.62-30.4-31.53-31.17
		c1.32,10.39,0.55,43.2-8.3,60.46c-4.23-12.75-15.6-60.27-12.89-70.85C487.11,479.48,505.77,475.44,506.54,469.86z"/>
	<path class="st15" d="M346.09,461.78c0,0-30.78,10.77-32.9,33.67c4.14-0.99,34.07-23.08,29.63-17.53
		c-5.77,7.21,0.27,30.83,1.92,34.08c4.23-8.66,20.58-31.31,15.58-37.87C354.55,476.21,345.89,468.51,346.09,461.78z"/>
	<path class="st15" d="M396.3,537.39c0,0-17.03,9.81,2.89,55.41C408.42,572.31,412.46,544.31,396.3,537.39z"/>
</g>
</svg>
